<mxfile host="app.diagrams.net" agent="Mozilla/5.0 (Windows NT 10.0; Win64; x64) AppleWebKit/537.36 (KHTML, like Gecko) Chrome/130.0.0.0 Safari/537.36" version="24.8.4">
  <diagram name="Side-1" id="GiZLnrztosgHiqI2SzcA">
    <mxGraphModel dx="724" dy="383" grid="1" gridSize="10" guides="1" tooltips="1" connect="1" arrows="1" fold="1" page="1" pageScale="1" pageWidth="827" pageHeight="1169" math="0" shadow="0">
      <root>
        <mxCell id="0" />
        <mxCell id="1" parent="0" />
        <mxCell id="2GaGgROVsI9pFgW1F3i2-2" value="rising edge on Acquire trigger input?" style="ellipse;whiteSpace=wrap;html=1;" vertex="1" parent="1">
          <mxGeometry x="130" y="120" width="120" height="80" as="geometry" />
        </mxCell>
        <mxCell id="2GaGgROVsI9pFgW1F3i2-3" value="No rising edge detected" style="text;html=1;align=center;verticalAlign=middle;whiteSpace=wrap;rounded=0;" vertex="1" parent="1">
          <mxGeometry x="260" y="110" width="116" height="30" as="geometry" />
        </mxCell>
        <mxCell id="2GaGgROVsI9pFgW1F3i2-6" value="" style="curved=0;endArrow=none;html=1;rounded=0;endFill=0;" edge="1" parent="1">
          <mxGeometry width="50" height="50" relative="1" as="geometry">
            <mxPoint x="200" y="250" as="sourcePoint" />
            <mxPoint x="260" y="220" as="targetPoint" />
            <Array as="points">
              <mxPoint x="230" y="250" />
              <mxPoint x="230" y="220" />
            </Array>
          </mxGeometry>
        </mxCell>
        <mxCell id="2GaGgROVsI9pFgW1F3i2-7" value="" style="endArrow=classic;html=1;rounded=0;" edge="1" parent="1">
          <mxGeometry width="50" height="50" relative="1" as="geometry">
            <mxPoint x="230" y="250" as="sourcePoint" />
            <mxPoint x="230" y="230" as="targetPoint" />
            <Array as="points">
              <mxPoint x="230" y="250" />
            </Array>
          </mxGeometry>
        </mxCell>
        <mxCell id="2GaGgROVsI9pFgW1F3i2-8" value="" style="curved=0;endArrow=classic;html=1;rounded=0;entryX=0.5;entryY=0;entryDx=0;entryDy=0;" edge="1" parent="1" target="2GaGgROVsI9pFgW1F3i2-2">
          <mxGeometry width="50" height="50" relative="1" as="geometry">
            <mxPoint x="250" y="160" as="sourcePoint" />
            <mxPoint x="300" y="110" as="targetPoint" />
            <Array as="points">
              <mxPoint x="270" y="160" />
              <mxPoint x="270" y="90" />
              <mxPoint x="190" y="90" />
            </Array>
          </mxGeometry>
        </mxCell>
        <mxCell id="2GaGgROVsI9pFgW1F3i2-11" value="" style="endArrow=classic;html=1;rounded=0;startArrow=none;startFill=0;endFill=1;" edge="1" parent="1" target="2GaGgROVsI9pFgW1F3i2-2">
          <mxGeometry width="50" height="50" relative="1" as="geometry">
            <mxPoint x="80" y="90" as="sourcePoint" />
            <mxPoint x="120" y="60" as="targetPoint" />
          </mxGeometry>
        </mxCell>
        <mxCell id="2GaGgROVsI9pFgW1F3i2-14" value="Trigger input" style="text;html=1;align=center;verticalAlign=middle;whiteSpace=wrap;rounded=0;" vertex="1" parent="1">
          <mxGeometry x="20" y="100" width="80" height="30" as="geometry" />
        </mxCell>
        <mxCell id="2GaGgROVsI9pFgW1F3i2-18" value="&lt;div&gt;State = IDLE&lt;/div&gt;is &#39;start_acquisition = 1&#39; and&lt;br&gt;&lt;div&gt;Rising edge on CLK detected?&lt;/div&gt;" style="ellipse;whiteSpace=wrap;html=1;" vertex="1" parent="1">
          <mxGeometry x="504" y="100" width="160" height="100" as="geometry" />
        </mxCell>
        <mxCell id="2GaGgROVsI9pFgW1F3i2-19" value="" style="curved=0;endArrow=classic;html=1;rounded=0;entryX=1;entryY=0;entryDx=0;entryDy=0;exitX=1;exitY=1;exitDx=0;exitDy=0;" edge="1" parent="1" source="2GaGgROVsI9pFgW1F3i2-18" target="2GaGgROVsI9pFgW1F3i2-18">
          <mxGeometry width="50" height="50" relative="1" as="geometry">
            <mxPoint x="694" y="200" as="sourcePoint" />
            <mxPoint x="744" y="150" as="targetPoint" />
            <Array as="points">
              <mxPoint x="704" y="185" />
              <mxPoint x="704" y="115" />
            </Array>
          </mxGeometry>
        </mxCell>
        <mxCell id="2GaGgROVsI9pFgW1F3i2-21" value="" style="endArrow=none;dashed=1;html=1;dashPattern=1 3;strokeWidth=2;rounded=0;exitX=0;exitY=0;exitDx=0;exitDy=0;entryX=0.616;entryY=1.091;entryDx=0;entryDy=0;entryPerimeter=0;" edge="1" parent="1" source="2GaGgROVsI9pFgW1F3i2-18" target="2GaGgROVsI9pFgW1F3i2-22">
          <mxGeometry width="50" height="50" relative="1" as="geometry">
            <mxPoint x="544" y="140" as="sourcePoint" />
            <mxPoint x="524" y="100" as="targetPoint" />
          </mxGeometry>
        </mxCell>
        <mxCell id="2GaGgROVsI9pFgW1F3i2-22" value="200 MHz FSM CLK" style="text;html=1;align=center;verticalAlign=middle;whiteSpace=wrap;rounded=0;" vertex="1" parent="1">
          <mxGeometry x="450" y="60" width="80" height="30" as="geometry" />
        </mxCell>
        <mxCell id="2GaGgROVsI9pFgW1F3i2-23" value="No rising edge detected and &#39;start acquisition = &#39;0&#39;" style="text;html=1;align=center;verticalAlign=middle;whiteSpace=wrap;rounded=0;" vertex="1" parent="1">
          <mxGeometry x="708" y="145" width="102" height="30" as="geometry" />
        </mxCell>
        <mxCell id="2GaGgROVsI9pFgW1F3i2-24" value="" style="endArrow=none;html=1;rounded=0;entryX=0.5;entryY=1;entryDx=0;entryDy=0;exitX=0.5;exitY=0;exitDx=0;exitDy=0;startArrow=classic;startFill=1;" edge="1" parent="1" source="2GaGgROVsI9pFgW1F3i2-26" target="2GaGgROVsI9pFgW1F3i2-2">
          <mxGeometry width="50" height="50" relative="1" as="geometry">
            <mxPoint x="190" y="240" as="sourcePoint" />
            <mxPoint x="270" y="230" as="targetPoint" />
          </mxGeometry>
        </mxCell>
        <mxCell id="2GaGgROVsI9pFgW1F3i2-26" value="Set&lt;div&gt;&amp;nbsp;&#39;start_acquisition = &#39;1&#39;&amp;nbsp;&lt;/div&gt;" style="rounded=0;whiteSpace=wrap;html=1;" vertex="1" parent="1">
          <mxGeometry x="125" y="270" width="130" height="60" as="geometry" />
        </mxCell>
        <mxCell id="2GaGgROVsI9pFgW1F3i2-29" value="Detected." style="text;html=1;align=center;verticalAlign=middle;whiteSpace=wrap;rounded=0;" vertex="1" parent="1">
          <mxGeometry x="170" y="220" width="190" height="30" as="geometry" />
        </mxCell>
        <mxCell id="2GaGgROVsI9pFgW1F3i2-49" style="edgeStyle=orthogonalEdgeStyle;rounded=0;orthogonalLoop=1;jettySize=auto;html=1;entryX=0.5;entryY=0;entryDx=0;entryDy=0;" edge="1" parent="1" source="2GaGgROVsI9pFgW1F3i2-30" target="2GaGgROVsI9pFgW1F3i2-48">
          <mxGeometry relative="1" as="geometry" />
        </mxCell>
        <mxCell id="2GaGgROVsI9pFgW1F3i2-30" value="State = ACQUIRE&lt;div&gt;Is rising edge on CLK detected?&lt;br&gt;&lt;div&gt;&lt;br&gt;&lt;/div&gt;&lt;/div&gt;" style="ellipse;whiteSpace=wrap;html=1;" vertex="1" parent="1">
          <mxGeometry x="511" y="350" width="146" height="90" as="geometry" />
        </mxCell>
        <mxCell id="2GaGgROVsI9pFgW1F3i2-31" value="" style="endArrow=none;html=1;rounded=0;entryX=0.5;entryY=1;entryDx=0;entryDy=0;startArrow=classic;startFill=1;" edge="1" parent="1" target="2GaGgROVsI9pFgW1F3i2-18">
          <mxGeometry width="50" height="50" relative="1" as="geometry">
            <mxPoint x="584" y="260" as="sourcePoint" />
            <mxPoint x="580" y="290" as="targetPoint" />
          </mxGeometry>
        </mxCell>
        <mxCell id="2GaGgROVsI9pFgW1F3i2-32" value="Detected." style="text;html=1;align=center;verticalAlign=middle;whiteSpace=wrap;rounded=0;" vertex="1" parent="1">
          <mxGeometry x="620" y="210" width="60" height="30" as="geometry" />
        </mxCell>
        <mxCell id="2GaGgROVsI9pFgW1F3i2-33" value="" style="curved=0;endArrow=none;html=1;rounded=0;endFill=0;" edge="1" parent="1">
          <mxGeometry width="50" height="50" relative="1" as="geometry">
            <mxPoint x="590" y="240" as="sourcePoint" />
            <mxPoint x="650" y="210" as="targetPoint" />
            <Array as="points">
              <mxPoint x="620" y="240" />
              <mxPoint x="620" y="210" />
            </Array>
          </mxGeometry>
        </mxCell>
        <mxCell id="2GaGgROVsI9pFgW1F3i2-34" value="" style="endArrow=classic;html=1;rounded=0;" edge="1" parent="1">
          <mxGeometry width="50" height="50" relative="1" as="geometry">
            <mxPoint x="620" y="235" as="sourcePoint" />
            <mxPoint x="620" y="215" as="targetPoint" />
            <Array as="points">
              <mxPoint x="620" y="235" />
            </Array>
          </mxGeometry>
        </mxCell>
        <mxCell id="2GaGgROVsI9pFgW1F3i2-43" style="edgeStyle=orthogonalEdgeStyle;rounded=0;orthogonalLoop=1;jettySize=auto;html=1;entryX=0.5;entryY=0;entryDx=0;entryDy=0;" edge="1" parent="1" source="2GaGgROVsI9pFgW1F3i2-37" target="2GaGgROVsI9pFgW1F3i2-30">
          <mxGeometry relative="1" as="geometry" />
        </mxCell>
        <mxCell id="2GaGgROVsI9pFgW1F3i2-37" value="set&lt;div&gt;State = ACQUIRE&lt;/div&gt;" style="rounded=0;whiteSpace=wrap;html=1;" vertex="1" parent="1">
          <mxGeometry x="524" y="260" width="120" height="60" as="geometry" />
        </mxCell>
        <mxCell id="2GaGgROVsI9pFgW1F3i2-38" value="" style="curved=0;endArrow=classic;html=1;rounded=0;entryX=1;entryY=0;entryDx=0;entryDy=0;exitX=1;exitY=1;exitDx=0;exitDy=0;" edge="1" parent="1" source="2GaGgROVsI9pFgW1F3i2-30" target="2GaGgROVsI9pFgW1F3i2-30">
          <mxGeometry width="50" height="50" relative="1" as="geometry">
            <mxPoint x="690" y="420" as="sourcePoint" />
            <mxPoint x="740" y="370" as="targetPoint" />
            <Array as="points">
              <mxPoint x="690" y="427" />
              <mxPoint x="690" y="363" />
            </Array>
          </mxGeometry>
        </mxCell>
        <mxCell id="2GaGgROVsI9pFgW1F3i2-41" value="No rising edge detected" style="text;html=1;align=center;verticalAlign=middle;whiteSpace=wrap;rounded=0;" vertex="1" parent="1">
          <mxGeometry x="680" y="380" width="116" height="30" as="geometry" />
        </mxCell>
        <mxCell id="2GaGgROVsI9pFgW1F3i2-46" value="" style="curved=0;endArrow=none;html=1;rounded=0;endFill=0;" edge="1" parent="1">
          <mxGeometry width="50" height="50" relative="1" as="geometry">
            <mxPoint x="590" y="480" as="sourcePoint" />
            <mxPoint x="650" y="450" as="targetPoint" />
            <Array as="points">
              <mxPoint x="620" y="480" />
              <mxPoint x="620" y="450" />
            </Array>
          </mxGeometry>
        </mxCell>
        <mxCell id="2GaGgROVsI9pFgW1F3i2-47" value="" style="endArrow=classic;html=1;rounded=0;" edge="1" parent="1">
          <mxGeometry width="50" height="50" relative="1" as="geometry">
            <mxPoint x="620" y="480" as="sourcePoint" />
            <mxPoint x="620" y="460" as="targetPoint" />
            <Array as="points">
              <mxPoint x="620" y="480" />
            </Array>
          </mxGeometry>
        </mxCell>
        <mxCell id="2GaGgROVsI9pFgW1F3i2-52" style="edgeStyle=orthogonalEdgeStyle;rounded=0;orthogonalLoop=1;jettySize=auto;html=1;entryX=0.5;entryY=0;entryDx=0;entryDy=0;" edge="1" parent="1" source="2GaGgROVsI9pFgW1F3i2-48" target="2GaGgROVsI9pFgW1F3i2-51">
          <mxGeometry relative="1" as="geometry" />
        </mxCell>
        <mxCell id="2GaGgROVsI9pFgW1F3i2-48" value="Set&lt;div&gt;&amp;nbsp;&#39;adc_busy = 1&#39;&lt;div&gt;&#39;cnv_trig_out = 1&#39;&lt;/div&gt;&lt;/div&gt;&lt;div&gt;&#39;dcn_trig_out =1&#39;&lt;/div&gt;" style="rounded=0;whiteSpace=wrap;html=1;" vertex="1" parent="1">
          <mxGeometry x="524" y="500" width="120" height="60" as="geometry" />
        </mxCell>
        <mxCell id="2GaGgROVsI9pFgW1F3i2-50" value="Detected." style="text;html=1;align=center;verticalAlign=middle;whiteSpace=wrap;rounded=0;" vertex="1" parent="1">
          <mxGeometry x="620" y="450" width="60" height="30" as="geometry" />
        </mxCell>
        <mxCell id="2GaGgROVsI9pFgW1F3i2-57" value="" style="edgeStyle=orthogonalEdgeStyle;rounded=0;orthogonalLoop=1;jettySize=auto;html=1;endArrow=none;endFill=0;" edge="1" parent="1" source="2GaGgROVsI9pFgW1F3i2-51" target="2GaGgROVsI9pFgW1F3i2-48">
          <mxGeometry relative="1" as="geometry" />
        </mxCell>
        <mxCell id="2GaGgROVsI9pFgW1F3i2-60" style="edgeStyle=orthogonalEdgeStyle;rounded=0;orthogonalLoop=1;jettySize=auto;html=1;entryX=0.5;entryY=0;entryDx=0;entryDy=0;" edge="1" parent="1" source="2GaGgROVsI9pFgW1F3i2-51" target="2GaGgROVsI9pFgW1F3i2-59">
          <mxGeometry relative="1" as="geometry" />
        </mxCell>
        <mxCell id="2GaGgROVsI9pFgW1F3i2-51" value="Is falling edge on dcn_busy flag detected?" style="ellipse;whiteSpace=wrap;html=1;" vertex="1" parent="1">
          <mxGeometry x="524" y="590" width="120" height="80" as="geometry" />
        </mxCell>
        <mxCell id="2GaGgROVsI9pFgW1F3i2-55" value="No falling edge detected" style="text;html=1;align=center;verticalAlign=middle;whiteSpace=wrap;rounded=0;" vertex="1" parent="1">
          <mxGeometry x="680" y="615" width="60" height="30" as="geometry" />
        </mxCell>
        <mxCell id="2GaGgROVsI9pFgW1F3i2-56" value="" style="curved=0;endArrow=classic;html=1;rounded=0;exitX=1;exitY=1;exitDx=0;exitDy=0;entryX=1;entryY=0;entryDx=0;entryDy=0;" edge="1" parent="1" source="2GaGgROVsI9pFgW1F3i2-51" target="2GaGgROVsI9pFgW1F3i2-51">
          <mxGeometry width="50" height="50" relative="1" as="geometry">
            <mxPoint x="664" y="630" as="sourcePoint" />
            <mxPoint x="714" y="580" as="targetPoint" />
            <Array as="points">
              <mxPoint x="680" y="658" />
              <mxPoint x="680" y="602" />
            </Array>
          </mxGeometry>
        </mxCell>
        <mxCell id="2GaGgROVsI9pFgW1F3i2-65" style="edgeStyle=orthogonalEdgeStyle;rounded=0;orthogonalLoop=1;jettySize=auto;html=1;entryX=0.5;entryY=0;entryDx=0;entryDy=0;" edge="1" parent="1" source="2GaGgROVsI9pFgW1F3i2-59" target="2GaGgROVsI9pFgW1F3i2-64">
          <mxGeometry relative="1" as="geometry" />
        </mxCell>
        <mxCell id="2GaGgROVsI9pFgW1F3i2-59" value="Set&lt;div&gt;State = GET_DATA&lt;/div&gt;&lt;div&gt;&#39;cnv_trig_out = 0&#39;&lt;/div&gt;&lt;div&gt;&#39;dcn_trig_out = 0&#39;&lt;/div&gt;" style="rounded=0;whiteSpace=wrap;html=1;" vertex="1" parent="1">
          <mxGeometry x="524" y="720" width="120" height="60" as="geometry" />
        </mxCell>
        <mxCell id="2GaGgROVsI9pFgW1F3i2-61" value="" style="curved=0;endArrow=none;html=1;rounded=0;endFill=0;" edge="1" parent="1">
          <mxGeometry width="50" height="50" relative="1" as="geometry">
            <mxPoint x="590" y="680" as="sourcePoint" />
            <mxPoint x="630" y="710" as="targetPoint" />
            <Array as="points">
              <mxPoint x="610" y="680" />
              <mxPoint x="610" y="710" />
            </Array>
          </mxGeometry>
        </mxCell>
        <mxCell id="2GaGgROVsI9pFgW1F3i2-62" value="" style="endArrow=none;startArrow=classic;html=1;rounded=0;endFill=0;" edge="1" parent="1">
          <mxGeometry width="50" height="50" relative="1" as="geometry">
            <mxPoint x="610" y="700" as="sourcePoint" />
            <mxPoint x="610" y="690" as="targetPoint" />
          </mxGeometry>
        </mxCell>
        <mxCell id="2GaGgROVsI9pFgW1F3i2-63" value="Detected." style="text;html=1;align=center;verticalAlign=middle;whiteSpace=wrap;rounded=0;" vertex="1" parent="1">
          <mxGeometry x="620" y="680" width="60" height="30" as="geometry" />
        </mxCell>
        <mxCell id="2GaGgROVsI9pFgW1F3i2-72" style="edgeStyle=orthogonalEdgeStyle;rounded=0;orthogonalLoop=1;jettySize=auto;html=1;entryX=0.5;entryY=0;entryDx=0;entryDy=0;" edge="1" parent="1" source="2GaGgROVsI9pFgW1F3i2-64" target="2GaGgROVsI9pFgW1F3i2-71">
          <mxGeometry relative="1" as="geometry" />
        </mxCell>
        <mxCell id="2GaGgROVsI9pFgW1F3i2-64" value="State = GET_DATA&lt;div&gt;is rising edge on CLK detected?&lt;/div&gt;" style="ellipse;whiteSpace=wrap;html=1;" vertex="1" parent="1">
          <mxGeometry x="524" y="810" width="120" height="80" as="geometry" />
        </mxCell>
        <mxCell id="2GaGgROVsI9pFgW1F3i2-66" value="" style="curved=0;endArrow=classic;html=1;rounded=0;entryX=1;entryY=0;entryDx=0;entryDy=0;exitX=1;exitY=1;exitDx=0;exitDy=0;" edge="1" parent="1">
          <mxGeometry width="50" height="50" relative="1" as="geometry">
            <mxPoint x="620" y="882" as="sourcePoint" />
            <mxPoint x="620" y="818" as="targetPoint" />
            <Array as="points">
              <mxPoint x="674" y="882" />
              <mxPoint x="674" y="818" />
            </Array>
          </mxGeometry>
        </mxCell>
        <mxCell id="2GaGgROVsI9pFgW1F3i2-67" value="No rising edge detected" style="text;html=1;align=center;verticalAlign=middle;whiteSpace=wrap;rounded=0;" vertex="1" parent="1">
          <mxGeometry x="664" y="835" width="116" height="30" as="geometry" />
        </mxCell>
        <mxCell id="2GaGgROVsI9pFgW1F3i2-68" value="" style="curved=0;endArrow=none;html=1;rounded=0;endFill=0;" edge="1" parent="1">
          <mxGeometry width="50" height="50" relative="1" as="geometry">
            <mxPoint x="600" y="930" as="sourcePoint" />
            <mxPoint x="660" y="900" as="targetPoint" />
            <Array as="points">
              <mxPoint x="630" y="930" />
              <mxPoint x="630" y="900" />
            </Array>
          </mxGeometry>
        </mxCell>
        <mxCell id="2GaGgROVsI9pFgW1F3i2-69" value="" style="endArrow=classic;html=1;rounded=0;" edge="1" parent="1">
          <mxGeometry width="50" height="50" relative="1" as="geometry">
            <mxPoint x="630" y="930" as="sourcePoint" />
            <mxPoint x="630" y="910" as="targetPoint" />
            <Array as="points">
              <mxPoint x="630" y="930" />
            </Array>
          </mxGeometry>
        </mxCell>
        <mxCell id="2GaGgROVsI9pFgW1F3i2-70" value="Detected." style="text;html=1;align=center;verticalAlign=middle;whiteSpace=wrap;rounded=0;" vertex="1" parent="1">
          <mxGeometry x="630" y="900" width="60" height="30" as="geometry" />
        </mxCell>
        <mxCell id="2GaGgROVsI9pFgW1F3i2-71" value="Set&lt;div&gt;&#39;spi_clk_trig_out = 1&#39;&lt;/div&gt;" style="rounded=0;whiteSpace=wrap;html=1;" vertex="1" parent="1">
          <mxGeometry x="524" y="940" width="120" height="60" as="geometry" />
        </mxCell>
      </root>
    </mxGraphModel>
  </diagram>
</mxfile>
